<svg width="1000" height="1000" xmlns="http://www.w3.org/2000/svg">
 <g id="Layer_1">
  <title>Layer 1</title>
  <path transform="rotate(-42.4941 577.023 477.023)" stroke="#FABA6F" id="svg_1" d="m399.86524,405.57274l354.31614,0l0,0c46.41642,0 84.04428,31.9892 84.04428,71.44987c0,39.46065 -37.62787,71.44984 -84.04428,71.44984l-354.31614,0l0,0c-46.41637,0 -84.04428,-31.98919 -84.04428,-71.44984c0,-39.46068 37.62791,-71.44987 84.04428,-71.44987z" fill="#FFFF91"/>
  <path transform="rotate(-42.4941 525.55 523.414)" stroke="#FABA6F" id="svg_2" d="m472.08525,491.8539l106.92992,0l0,0c14.00813,0 25.36393,14.13008 25.36393,31.56041c0,17.43032 -11.35581,31.56039 -25.36393,31.56039l-106.92992,0l0,0c-14.00811,0 -25.36393,-14.13007 -25.36393,-31.56039c0,-17.43034 11.35582,-31.56041 25.36393,-31.56041z" fill="#422C10"/>
  <path transform="rotate(43.5825 761.64 300.003)" id="svg_3" d="m690.63992,371.00312l71.00002,-142l71.00002,142l-142.00004,0z" fill="#FFFF91"/>
  <path transform="rotate(43.7947 774.197 287.213)" stroke="#FABA6F" id="svg_6" d="m739.33805,319.73586l34.85909,-65.04613l34.85909,65.04613l-69.71818,0z" fill="#422C10"/>
 </g>
</svg>