<svg width="1000" height="1000" xmlns="http://www.w3.org/2000/svg">
 <g id="Layer_1">
  <title>Layer 1</title>
  <g transform="rotate(-105 472.65 475.11)" id="svg_14">
   <g stroke="null">
    <g stroke="null" id="svg_2">
     <title stroke="null">Layer 1</title>
     <path stroke="#FABA6F" fill="#FFFF91" d="m286.40805,573.7539l296.52777,-285.65283l0,0c38.84598,-37.42133 94.86357,-39.6066 125.11888,-4.88103c30.25529,34.72555 23.29123,93.21211 -15.55474,130.63343l-296.52777,285.65283l0,0c-38.84594,37.42129 -94.86357,39.60661 -125.11886,4.88106c-30.25531,-34.72558 -23.29122,-93.21217 15.55472,-130.63346z" id="svg_6"/>
     <path stroke="#FABA6F" fill="#422C10" d="m362.08878,564.50147l89.48983,-86.20785l0,0c11.72343,-11.29348 32.06094,-8.01409 45.42513,7.32468c13.36418,15.33876 14.6943,36.92844 2.97088,48.22191l-89.48983,86.20785l0,0c-11.72341,11.29346 -32.06093,8.0141 -45.42511,-7.32466c-13.3642,-15.33878 -14.69431,-36.92847 -2.9709,-48.22193z" id="svg_5"/>
     <path stroke="null" fill="#FFFF91" d="m585.06611,285.49995l169.48732,-64.34618l-52.73677,181.18086l-116.75055,-116.83468z" id="svg_4"/>
     <path stroke="#FABA6F" fill="#422C10" d="m659.14333,266.49601l79.65443,-27.2431l-22.5355,84.82861l-57.11893,-57.5855z" id="svg_3"/>
    </g>
   </g>
   <path transform="rotate(-14.750870704650879 347.62217712402344,585.9552459716797)" id="svg_9" d="m441.97418,569.10412c0.20267,-2.14209 0.32,-4.30615 0.32,-6.49218c0,-37.92048 -29.84533,-68.65673 -66.66667,-68.65673c-28.576,0 -52.88533,18.55379 -62.368,44.58842c-6.28267,-7.09636 -15.24267,-11.6332 -25.30133,-11.6332c-18.96533,0 -34.336,15.8295 -34.336,35.36096c0,2.30687 0.24533,4.55881 0.66133,6.73385c-25.30133,4.29516 -44.66133,26.75965 -44.66133,54.02461c0,30.34078 23.88267,54.92538 53.33333,54.92538l169.33334,0c29.46133,0 53.33333,-24.5846 53.33333,-54.92538c0.01067,-26.92442 -18.82667,-49.22413 -43.648,-53.92574z" fill="#999999"/>
   <path transform="rotate(22.430986404418945 482.6221923828125,491.9552459716797)" id="svg_10" d="m576.97418,475.10412c0.20267,-2.14209 0.32,-4.30615 0.32,-6.49218c0,-37.92048 -29.84533,-68.65672 -66.66667,-68.65672c-28.576,0 -52.88533,18.55379 -62.368,44.58842c-6.28267,-7.09636 -15.24267,-11.63319 -25.30133,-11.63319c-18.96534,0 -34.336,15.82949 -34.336,35.36096c0,2.30686 0.24533,4.5588 0.66133,6.73385c-25.30133,4.29516 -44.66133,26.75964 -44.66133,54.0246c0,30.34078 23.88266,54.92539 53.33333,54.92539l169.33334,0c29.46133,0 53.33333,-24.58461 53.33333,-54.92539c0.01067,-26.92442 -18.82667,-49.22412 -43.648,-53.92574z" fill="#666666"/>
   <path transform="rotate(86.1335 570.622 458.955)" id="svg_11" d="m664.97418,442.10412c0.20267,-2.14209 0.32,-4.30615 0.32,-6.49218c0,-37.92048 -29.84533,-68.65672 -66.66667,-68.65672c-28.576,0 -52.88533,18.55379 -62.368,44.58842c-6.28267,-7.09636 -15.24267,-11.63319 -25.30133,-11.63319c-18.96534,0 -34.336,15.82949 -34.336,35.36096c0,2.30686 0.24533,4.5588 0.66133,6.73385c-25.30133,4.29516 -44.66133,26.75964 -44.66133,54.0246c0,30.34078 23.88266,54.92539 53.33333,54.92539l169.33334,0c29.46133,0 53.33333,-24.58461 53.33333,-54.92539c0.01067,-26.92442 -18.82667,-49.22412 -43.648,-53.92574z" fill="#444444"/>
  </g>
  <path id="svg_15" d="m391.20015,495.38472l3.93137,-1.21378l-3.63327,-2.00579l4.07787,-0.37159l-3.19504,-2.72322l4.06768,0.48144l-2.63578,-3.33485l3.90207,1.31685l-1.9746,-3.81765l3.58486,2.10073l-1.23572,-4.15128l3.13134,2.80594l-0.45097,-4.33165l2.55679,3.40266l0.35033,-4.34114l1.88543,3.86783l1.14017,-4.18518l1.1389,4.18518l1.88415,-3.86783l0.35033,4.34114l2.55807,-3.40266l-0.45225,4.33165l3.13261,-2.80594l-1.23827,4.15263l3.58486,-2.10073l-1.97333,3.8163l3.9008,-1.31685l-2.63705,3.3335l4.06768,-0.48144l-3.19376,2.72457l4.0766,0.37159l-3.63327,2.00579l3.93137,1.21378l-3.93137,1.21378l3.63327,2.00579l-4.0766,0.37159l3.19504,2.72322l-4.06768,-0.48144l2.63705,3.33485l-3.9008,-1.31685l1.97333,3.8163l-3.58486,-2.10073l1.23699,4.15263l-3.13261,-2.80459l0.45225,4.33029l-2.55807,-3.40266l-0.35033,4.33979l-1.88415,-3.86783l-1.1389,4.18518l-1.14017,-4.18518l-1.88543,3.86783l-0.35033,-4.33979l-2.55679,3.40266l0.45097,-4.33029l-3.13134,2.80459l1.23699,-4.15263l-3.58486,2.10073l1.9746,-3.8163l-3.90207,1.31685l2.63578,-3.33485l-4.06896,0.48144l3.19504,-2.72322l-4.07787,-0.37159l3.63454,-2.00579l-3.93265,-1.21378z" fill="url(#svg_19)"/>
  <path id="svg_20" d="m408.44883,492.34241l3.93137,-1.21378l-3.63327,-2.0058l4.07787,-0.37159l-3.19503,-2.72322l4.06768,0.48145l-2.63578,-3.33486l3.90207,1.31686l-1.9746,-3.81766l3.58486,2.10073l-1.23572,-4.15128l3.13134,2.80595l-0.45097,-4.33165l2.55679,3.40266l0.35033,-4.34114l1.88543,3.86783l1.14017,-4.18518l1.1389,4.18518l1.88416,-3.86783l0.35033,4.34114l2.55807,-3.40266l-0.45225,4.33165l3.13261,-2.80595l-1.23827,4.15263l3.58486,-2.10072l-1.97333,3.8163l3.9008,-1.31686l-2.63705,3.3335l4.06768,-0.48144l-3.19376,2.72457l4.0766,0.37159l-3.63327,2.0058l3.93137,1.21378l-3.93137,1.21378l3.63327,2.0058l-4.0766,0.37159l3.19504,2.72322l-4.06769,-0.48145l2.63705,3.33486l-3.90079,-1.31686l1.97333,3.8163l-3.58486,-2.10073l1.23699,4.15264l-3.13261,-2.80459l0.45225,4.33029l-2.55807,-3.40266l-0.35033,4.33978l-1.88416,-3.86783l-1.1389,4.18518l-1.14017,-4.18518l-1.88543,3.86783l-0.35033,-4.33978l-2.55679,3.40266l0.45097,-4.33029l-3.13134,2.80459l1.23699,-4.15264l-3.58486,2.10073l1.97461,-3.8163l-3.90207,1.31686l2.63577,-3.33486l-4.06895,0.48145l3.19503,-2.72322l-4.07787,-0.37159l3.63454,-2.0058l-3.93264,-1.21378z" fill="url(#svg_19)"/>
  <path id="svg_21" d="m658.79249,477.95088l3.93137,-1.21378l-3.63327,-2.0058l4.07787,-0.37159l-3.19503,-2.72322l4.06768,0.48145l-2.63578,-3.33486l3.90207,1.31686l-1.9746,-3.81766l3.58486,2.10073l-1.23572,-4.15128l3.13134,2.80595l-0.45097,-4.33165l2.55679,3.40266l0.35033,-4.34114l1.88543,3.86783l1.14017,-4.18518l1.1389,4.18518l1.88416,-3.86783l0.35033,4.34114l2.55807,-3.40266l-0.45225,4.33165l3.13261,-2.80595l-1.23827,4.15263l3.58486,-2.10072l-1.97333,3.8163l3.9008,-1.31686l-2.63705,3.3335l4.06768,-0.48144l-3.19376,2.72457l4.0766,0.37159l-3.63327,2.0058l3.93137,1.21378l-3.93137,1.21378l3.63327,2.0058l-4.0766,0.37159l3.19504,2.72322l-4.06769,-0.48145l2.63705,3.33486l-3.90079,-1.31686l1.97333,3.8163l-3.58486,-2.10073l1.23699,4.15264l-3.13261,-2.80459l0.45225,4.33029l-2.55807,-3.40266l-0.35033,4.33978l-1.88416,-3.86783l-1.1389,4.18518l-1.14017,-4.18518l-1.88543,3.86783l-0.35033,-4.33978l-2.55679,3.40266l0.45097,-4.33029l-3.13134,2.80459l1.23699,-4.15264l-3.58486,2.10073l1.97461,-3.8163l-3.90207,1.31686l2.63577,-3.33486l-4.06895,0.48145l3.19503,-2.72322l-4.07787,-0.37159l3.63454,-2.0058l-3.93264,-1.21378z" fill="url(#svg_19)"/>
  <path id="svg_22" d="m579.16294,415.72872l3.93137,-1.21378l-3.63327,-2.0058l4.07787,-0.37159l-3.19503,-2.72322l4.06768,0.48145l-2.63578,-3.33486l3.90207,1.31686l-1.9746,-3.81766l3.58486,2.10073l-1.23572,-4.15128l3.13134,2.80595l-0.45097,-4.33165l2.55679,3.40266l0.35033,-4.34114l1.88543,3.86783l1.14017,-4.18518l1.1389,4.18518l1.88416,-3.86783l0.35033,4.34114l2.55807,-3.40266l-0.45225,4.33165l3.13261,-2.80595l-1.23827,4.15263l3.58486,-2.10072l-1.97333,3.8163l3.9008,-1.31686l-2.63705,3.3335l4.06768,-0.48144l-3.19376,2.72457l4.0766,0.37159l-3.63327,2.0058l3.93137,1.21378l-3.93137,1.21378l3.63327,2.0058l-4.0766,0.37159l3.19504,2.72322l-4.06769,-0.48145l2.63705,3.33486l-3.90079,-1.31686l1.97333,3.8163l-3.58486,-2.10073l1.23699,4.15264l-3.13261,-2.80459l0.45225,4.33029l-2.55807,-3.40266l-0.35033,4.33978l-1.88416,-3.86783l-1.1389,4.18518l-1.14017,-4.18518l-1.88543,3.86783l-0.35033,-4.33978l-2.55679,3.40266l0.45097,-4.33029l-3.13134,2.80459l1.23699,-4.15264l-3.58486,2.10073l1.97461,-3.8163l-3.90207,1.31686l2.63577,-3.33486l-4.06895,0.48145l3.19503,-2.72322l-4.07787,-0.37159l3.63454,-2.0058l-3.93264,-1.21378z" fill="url(#svg_19)"/>
  <path id="svg_23" d="m313.97804,392.76579l3.93137,-1.21378l-3.63327,-2.0058l4.07787,-0.37159l-3.19503,-2.72322l4.06768,0.48145l-2.63578,-3.33486l3.90207,1.31686l-1.9746,-3.81766l3.58486,2.10073l-1.23572,-4.15128l3.13134,2.80595l-0.45097,-4.33165l2.55679,3.40266l0.35033,-4.34114l1.88543,3.86783l1.14017,-4.18518l1.1389,4.18518l1.88416,-3.86783l0.35033,4.34114l2.55807,-3.40266l-0.45225,4.33165l3.13261,-2.80595l-1.23827,4.15263l3.58486,-2.10072l-1.97333,3.8163l3.9008,-1.31686l-2.63705,3.3335l4.06768,-0.48144l-3.19376,2.72457l4.0766,0.37159l-3.63327,2.0058l3.93137,1.21378l-3.93137,1.21378l3.63327,2.0058l-4.0766,0.37159l3.19504,2.72322l-4.06769,-0.48145l2.63705,3.33486l-3.90079,-1.31686l1.97333,3.8163l-3.58486,-2.10073l1.23699,4.15264l-3.13261,-2.80459l0.45225,4.33029l-2.55807,-3.40266l-0.35033,4.33978l-1.88416,-3.86783l-1.1389,4.18518l-1.14017,-4.18518l-1.88543,3.86783l-0.35033,-4.33978l-2.55679,3.40266l0.45097,-4.33029l-3.13134,2.80459l1.23699,-4.15264l-3.58486,2.10073l1.97461,-3.8163l-3.90207,1.31686l2.63577,-3.33486l-4.06895,0.48145l3.19503,-2.72322l-4.07787,-0.37159l3.63454,-2.0058l-3.93264,-1.21378z" fill="url(#svg_19)"/>
  <path id="svg_24" d="m291.0151,430.9139l3.93137,-1.21378l-3.63327,-2.0058l4.07787,-0.37159l-3.19503,-2.72322l4.06768,0.48145l-2.63578,-3.33486l3.90207,1.31686l-1.9746,-3.81766l3.58486,2.10073l-1.23572,-4.15128l3.13134,2.80595l-0.45097,-4.33165l2.55679,3.40266l0.35033,-4.34114l1.88543,3.86783l1.14017,-4.18518l1.1389,4.18518l1.88416,-3.86783l0.35033,4.34114l2.55807,-3.40266l-0.45225,4.33165l3.13261,-2.80595l-1.23827,4.15263l3.58486,-2.10072l-1.97333,3.8163l3.9008,-1.31686l-2.63705,3.3335l4.06768,-0.48144l-3.19376,2.72457l4.0766,0.37159l-3.63327,2.0058l3.93137,1.21378l-3.93137,1.21378l3.63327,2.0058l-4.0766,0.37159l3.19504,2.72322l-4.06769,-0.48145l2.63705,3.33486l-3.90079,-1.31686l1.97333,3.8163l-3.58486,-2.10073l1.23699,4.15264l-3.13261,-2.80459l0.45225,4.33029l-2.55807,-3.40266l-0.35033,4.33978l-1.88416,-3.86783l-1.1389,4.18518l-1.14017,-4.18518l-1.88543,3.86783l-0.35033,-4.33978l-2.55679,3.40266l0.45097,-4.33029l-3.13134,2.80459l1.23699,-4.15264l-3.58486,2.10073l1.97461,-3.8163l-3.90207,1.31686l2.63577,-3.33486l-4.06895,0.48145l3.19503,-2.72322l-4.07787,-0.37159l3.63454,-2.0058l-3.93264,-1.21378z" fill="url(#svg_19)"/>
  <path id="svg_25" d="m506.94079,604.98778l3.93137,-1.21378l-3.63327,-2.0058l4.07787,-0.37159l-3.19503,-2.72322l4.06768,0.48145l-2.63578,-3.33486l3.90207,1.31686l-1.9746,-3.81766l3.58486,2.10073l-1.23572,-4.15128l3.13134,2.80595l-0.45097,-4.33165l2.55679,3.40266l0.35033,-4.34114l1.88543,3.86783l1.14017,-4.18518l1.1389,4.18518l1.88416,-3.86783l0.35033,4.34114l2.55807,-3.40266l-0.45225,4.33165l3.13261,-2.80595l-1.23827,4.15263l3.58486,-2.10072l-1.97333,3.8163l3.9008,-1.31686l-2.63705,3.3335l4.06768,-0.48144l-3.19376,2.72457l4.0766,0.37159l-3.63327,2.0058l3.93137,1.21378l-3.93137,1.21378l3.63327,2.0058l-4.0766,0.37159l3.19504,2.72322l-4.06769,-0.48145l2.63705,3.33486l-3.90079,-1.31686l1.97333,3.8163l-3.58486,-2.10073l1.23699,4.15264l-3.13261,-2.80459l0.45225,4.33029l-2.55807,-3.40266l-0.35033,4.33978l-1.88416,-3.86783l-1.1389,4.18518l-1.14017,-4.18518l-1.88543,3.86783l-0.35033,-4.33978l-2.55679,3.40266l0.45097,-4.33029l-3.13134,2.80459l1.23699,-4.15264l-3.58486,2.10073l1.97461,-3.8163l-3.90207,1.31686l2.63577,-3.33486l-4.06895,0.48145l3.19503,-2.72322l-4.07787,-0.37159l3.63454,-2.0058l-3.93264,-1.21378z" fill="url(#svg_19)"/>
  <path id="svg_26" d="m365.48578,320.38411l3.93137,-1.21378l-3.63327,-2.0058l4.07787,-0.37159l-3.19503,-2.72322l4.06768,0.48145l-2.63578,-3.33486l3.90207,1.31686l-1.9746,-3.81766l3.58486,2.10073l-1.23572,-4.15128l3.13134,2.80595l-0.45097,-4.33165l2.55679,3.40266l0.35033,-4.34114l1.88543,3.86783l1.14017,-4.18518l1.1389,4.18518l1.88416,-3.86783l0.35033,4.34114l2.55807,-3.40266l-0.45225,4.33165l3.13261,-2.80595l-1.23827,4.15263l3.58486,-2.10072l-1.97333,3.8163l3.9008,-1.31686l-2.63705,3.3335l4.06768,-0.48144l-3.19376,2.72457l4.0766,0.37159l-3.63327,2.0058l3.93137,1.21378l-3.93137,1.21378l3.63327,2.0058l-4.0766,0.37159l3.19504,2.72322l-4.06769,-0.48145l2.63705,3.33486l-3.90079,-1.31686l1.97333,3.8163l-3.58486,-2.10073l1.23699,4.15264l-3.13261,-2.80459l0.45225,4.33029l-2.55807,-3.40266l-0.35033,4.33978l-1.88416,-3.86783l-1.1389,4.18518l-1.14017,-4.18518l-1.88543,3.86783l-0.35033,-4.33978l-2.55679,3.40266l0.45097,-4.33029l-3.13134,2.80459l1.23699,-4.15264l-3.58486,2.10073l1.97461,-3.8163l-3.90207,1.31686l2.63577,-3.33486l-4.06895,0.48145l3.19503,-2.72322l-4.07787,-0.37159l3.63454,-2.0058l-3.93264,-1.21378z" fill="url(#svg_19)"/>
  <path id="svg_27" d="m697.62978,551.81349l3.93137,-1.21378l-3.63327,-2.0058l4.07787,-0.37159l-3.19503,-2.72322l4.06768,0.48145l-2.63578,-3.33486l3.90208,1.31686l-1.97461,-3.81766l3.58486,2.10073l-1.23572,-4.15128l3.13134,2.80595l-0.45097,-4.33165l2.55679,3.40266l0.35033,-4.34114l1.88543,3.86783l1.14017,-4.18518l1.13891,4.18518l1.88415,-3.86783l0.35033,4.34114l2.55807,-3.40266l-0.45225,4.33165l3.13261,-2.80595l-1.23826,4.15264l3.58486,-2.10073l-1.97333,3.8163l3.90079,-1.31686l-2.63705,3.3335l4.06769,-0.48144l-3.19377,2.72457l4.0766,0.37159l-3.63327,2.0058l3.93138,1.21378l-3.93138,1.21378l3.63327,2.0058l-4.0766,0.37159l3.19504,2.72322l-4.06768,-0.48145l2.63705,3.33486l-3.9008,-1.31686l1.97333,3.8163l-3.58486,-2.10073l1.23699,4.15264l-3.13261,-2.80459l0.45225,4.33029l-2.55807,-3.40266l-0.35033,4.33979l-1.88415,-3.86784l-1.13891,4.18518l-1.14017,-4.18518l-1.88543,3.86784l-0.35033,-4.33979l-2.55679,3.40266l0.45097,-4.33029l-3.13134,2.80459l1.237,-4.15264l-3.58486,2.10073l1.9746,-3.8163l-3.90207,1.31686l2.63578,-3.33486l-4.06896,0.48145l3.19503,-2.72322l-4.07787,-0.37159l3.63454,-2.0058l-3.93264,-1.21378z" fill="url(#svg_19)"/>
 </g>
 <defs>
  <radialGradient spreadMethod="pad" id="svg_19">
   <stop offset="0.3125" stop-color="#e9ff00"/>
   <stop offset="1" stop-opacity="0.99609" stop-color="#ff0000"/>
  </radialGradient>
 </defs>
</svg>