<svg width="1000" height="1000" xmlns="http://www.w3.org/2000/svg">
 <g id="Layer_1">
  <title>Layer 1</title>
  <path id="svg_3" d="m568.70845,338.04667c0,0 9.16695,-44.4105 0,-59.45439c-9.17775,-15.0439 -12.83805,-25.06473 -33.01829,-32.23873s-12.82725,-5.74426 -27.50085,-5.01041c-14.6736,0.7212 -26.90699,10.02083 -26.90699,15.03124c0,0 -9.16695,0.7212 -12.82725,5.02307c-3.6711,4.30187 -9.7824,24.34353 -9.7824,29.3666s3.05565,38.69154 6.1113,45.85289l-3.63871,1.42974c-3.05565,41.53836 12.2226,46.56143 12.2226,46.56143c5.49585,38.69154 11.0025,22.2179 11.0025,32.23873s-5.50665,6.45281 -5.50665,6.45281s-4.8804,15.75244 -17.103,21.48405c-12.2226,5.71896 -80.07313,36.5153 -85.59058,42.9681c-5.51744,6.46546 -4.8912,36.5406 -4.8912,36.5406l290.95614,0c0,0 0.63704,-30.07514 -4.8804,-36.5406c-5.52824,-6.46546 -73.37878,-37.24914 -85.60138,-42.9681c-12.2226,-5.73161 -17.103,-21.48405 -17.103,-21.48405s-5.50665,3.56802 -5.50665,-6.45281s5.50665,6.45281 11.0133,-32.23873c0,0 15.26745,-5.02307 12.2226,-46.56143l-3.6711,0z" fill="#ffaaaa"/>
  <path transform="rotate(-89.7364 519.006 492.443)" stroke="#0f0f00" stroke-opacity="0" id="svg_6" d="m440.51427,337.87161l78.49172,0l0,0c43.34979,0 78.49172,69.2038 78.49172,154.57101c0,85.36723 -35.14193,154.57101 -78.49172,154.57101l-78.49172,0l0,-309.14203z" fill="url(#svg_8)"/>
  <path id="svg_9" d="m333,544" opacity="NaN" stroke-opacity="0" stroke="#0f0f00" fill="url(#svg_8)"/>
  <path id="svg_10" d="m364,570c1,212 127,222 156,226c29,4 -157,-438 -156,-226z" opacity="NaN" stroke-opacity="0" stroke="#0f0f00" fill="url(#svg_8)"/>
  <path stroke="#0f0f00" id="svg_11" d="m674.99207,570c-0.96763,212 -122.88926,222 -150.95059,226c-28.06133,4 151.91822,-438 150.95059,-226z" opacity="NaN" stroke-opacity="0" fill="url(#svg_12)"/>
  <ellipse ry="163" rx="95.5" id="svg_13" cy="623" cx="517.5" stroke-opacity="0" stroke="#0f0f00" fill="url(#svg_12)"/>
 </g>
 <defs>
  <radialGradient spreadMethod="pad" id="svg_8">
   <stop offset="0" stop-color="#ffff0f"/>
   <stop offset="1" stop-opacity="0.99609" stop-color="#f7ff89"/>
  </radialGradient>
  <radialGradient x2="1" x1="1" spreadMethod="pad" id="svg_12">
   <stop offset="0" stop-color="#ffff0f"/>
   <stop offset="1" stop-opacity="0.99609" stop-color="#f7ff89"/>
  </radialGradient>
 </defs>
</svg>